<svg width="30" height="30" viewBox="0 0 30 30" fill="none" xmlns="http://www.w3.org/2000/svg">
  <g clip-path="url(#clip0_139_3892)">
    <path d="M24.648 25.8173V28.6362C24.648 28.8997 24.4343 29.1134 24.1708 29.1134C23.9072 29.1134 23.6936 28.8997 23.6936 28.6362V25.8173C23.6936 23.6224 21.9175 21.8462 19.7224 21.8462C18.6838 21.8462 17.7415 21.3171 17.2016 20.4308C17.0645 20.2057 17.1358 19.9121 17.3609 19.775C17.586 19.6379 17.8796 19.7092 18.0167 19.9343C18.3819 20.5339 19.0195 20.8918 19.7224 20.8918C22.4447 20.8917 24.648 23.0947 24.648 25.8173ZM16.3203 21.0336C16.3764 21.2912 16.2132 21.5454 15.9557 21.6015C14.6998 21.8752 13.4225 21.6012 12.4055 20.9071C11.3987 21.986 10.0686 21.8462 10.2466 21.8462C8.05176 21.8462 6.27546 23.6222 6.27546 25.8173V28.6362C6.27546 28.8997 6.06179 29.1134 5.79825 29.1134C5.53472 29.1134 5.32104 28.8997 5.32104 28.6362V25.8173C5.32104 23.095 7.52391 20.8918 10.2465 20.8918C11.3478 20.8918 12.2406 20.0045 12.2406 18.9029V18.7772C10.1576 17.7812 8.69558 15.6882 8.60646 13.2509C7.74927 13.0449 7.11058 12.2776 7.11058 11.3648V8.89086C7.08451 7.67994 7.2643 4.64709 9.47564 2.51551C12.2062 -0.116664 16.5851 0.0505381 19.8049 1.60058C20.1187 1.75179 20.1664 2.17579 19.9058 2.39537C21.5369 2.79324 22.9435 3.79598 23.8472 5.23107C23.8938 5.30498 23.9792 5.421 23.9569 5.6061C23.9431 5.72129 23.9088 5.81876 23.82 5.90883C23.2384 6.49866 22.9182 7.28027 22.9182 8.10972V11.3649C22.9182 11.6284 22.7045 11.8421 22.441 11.8421C22.1774 11.8421 21.9637 11.6284 21.9637 11.3649V8.10972C21.9637 7.1531 22.2906 6.24508 22.8908 5.51567C21.9759 4.20716 20.5485 3.3656 18.9341 3.19273L18.0953 3.10289C17.6048 3.0504 17.5086 2.37473 17.9644 2.18713L18.3459 2.03007C13.3778 0.298091 8.06494 2.2225 8.06494 8.88567V11.3648C8.06494 11.7434 8.28303 12.0725 8.6018 12.2378V9.14414C8.6018 7.30222 10.1004 5.80366 11.9423 5.80366H18.0267C19.8686 5.80366 21.3672 7.3021 21.3672 9.14396V13.0513C21.3672 17.2015 17.3116 20.3538 13.1848 19.1389C13.158 19.4794 13.0732 19.8079 12.9351 20.1133C13.7379 20.6646 14.7517 20.887 15.7524 20.6689C16.01 20.6129 16.2642 20.7761 16.3203 21.0336ZM14.9845 18.4433C17.9777 18.4433 20.4128 16.0082 20.4128 13.015V9.14396C20.4128 7.82841 19.3424 6.75809 18.0267 6.75809H11.9423C10.6266 6.75809 9.55622 7.82847 9.55622 9.14414V13.015C9.55622 16.0082 11.9913 18.4433 14.9845 18.4433ZM19.8162 26.6677H18.3846C18.1211 26.6677 17.9074 26.8814 17.9074 27.1449C17.9074 27.4085 18.1211 27.6221 18.3846 27.6221H19.8162C20.0798 27.6221 20.2935 27.4085 20.2935 27.1449C20.2935 26.8814 20.0798 26.6677 19.8162 26.6677Z" fill="white"/>
  </g>
  <defs>
    <clipPath id="clip0_139_3892">
      <rect width="28.6364" height="28.6364" fill="white" transform="translate(0.66626 0.477051)"/>
    </clipPath>
  </defs>
</svg>
