<svg width="60" height="56" viewBox="0 0 60 56" fill="none" xmlns="http://www.w3.org/2000/svg">
  <path d="M35.7609 34.6938C36.5014 34.6938 37.1941 34.4252 37.7112 33.9376L42.3051 29.6048C43.3536 28.6157 43.3319 27.0264 42.2566 26.0618C41.1814 25.0974 39.4534 25.1173 38.4049 26.1063L35.7099 28.6479L35.2378 28.2256C34.161 27.2628 32.4331 27.2848 31.3859 28.2753C30.3391 29.2657 30.3632 30.855 31.44 31.8181L33.8621 33.9846C34.3734 34.4419 35.0478 34.6938 35.7609 34.6938ZM32.6454 29.4017C33.0175 29.0497 33.6314 29.0424 34.0134 29.3842L35.1142 30.3688C35.4615 30.6796 36.0168 30.6726 36.3552 30.3536L39.6624 27.2345C40.035 26.8831 40.6486 26.8763 41.0303 27.2186C41.4122 27.5612 41.4198 28.1256 41.0476 28.4768L36.4536 32.8095C36.0986 33.1588 35.4519 33.1662 35.0867 32.8263L32.6646 30.6599C32.2824 30.3178 32.2736 29.7533 32.6454 29.4017Z" fill="#BE00B0"/>
  <path d="M28.9718 35.2437C28.6797 34.8875 28.1291 34.8165 27.7416 35.0853C27.3543 35.3541 27.2774 35.8606 27.5695 36.2168C27.8893 36.6067 28.2432 36.9806 28.6209 37.328C30.7804 39.3144 33.6516 40.4082 36.7055 40.4082C39.7595 40.4082 42.6305 39.3144 44.79 37.328C46.9496 35.3418 48.1388 32.7009 48.1388 29.8919C48.1388 27.0829 46.9495 24.442 44.79 22.4558C40.3321 18.3555 33.0788 18.3556 28.6209 22.4558C25.5817 25.2512 24.5062 29.3291 25.8142 33.0982C25.9617 33.5233 26.4563 33.7576 26.918 33.6222C27.3801 33.4865 27.6352 33.0319 27.4876 32.6069C26.3803 29.4164 27.2905 25.9645 29.8631 23.5983C33.6359 20.128 39.7751 20.128 43.5479 23.5983C45.3756 25.2795 46.3823 27.5146 46.3823 29.892C46.3823 32.2695 45.3756 34.5046 43.5479 36.1857C41.7203 37.8667 39.2903 38.7927 36.7055 38.7927C34.1209 38.7927 31.6907 37.8669 29.863 36.1857C29.5426 35.8907 29.2427 35.5739 28.9718 35.2437Z" fill="#BE00B0"/>
  <path d="M58.625 44.6511L53.084 39.5545C52.7409 39.2391 52.1848 39.239 51.8417 39.5545L51.8078 39.5857L49.6755 37.6244C51.1089 35.5915 51.9629 33.2427 52.131 30.7913C52.1615 30.346 51.7937 29.9623 51.3097 29.9341C50.826 29.907 50.4085 30.2444 50.3778 30.6896C50.168 33.7501 48.7527 36.6312 46.3926 38.802C43.7253 41.2554 40.2226 42.4835 36.7189 42.4867C36.7144 42.4866 36.7101 42.486 36.7055 42.486H36.6358C33.1509 42.4699 29.6715 41.2422 27.0185 38.802C24.4309 36.4221 23.0059 33.2577 23.0059 29.8919C23.0059 26.5261 24.4309 23.3617 27.0185 20.9818C32.3599 16.0686 41.0512 16.0686 46.3926 20.9818C48.382 22.8117 49.6949 25.1199 50.1893 27.6571C50.275 28.0962 50.7317 28.388 51.2088 28.3097C51.6863 28.2311 52.0039 27.8113 51.9184 27.372C51.3603 24.5084 49.879 21.9036 47.6347 19.8392C46.5226 18.8163 45.2816 17.9829 43.9595 17.3375V10.8265C43.9588 10.6138 43.8654 10.4057 43.7023 10.2552L32.8189 0.244672C32.6552 0.0948119 32.4291 0.00859416 32.1977 0.00805664H2.63488C1.18205 0.00805664 -5.20831e-06 1.09524 -5.20831e-06 2.43162V9.22186C-5.20831e-06 9.668 0.393119 10.0297 0.87833 10.0297C1.36342 10.0297 1.75666 9.66811 1.75666 9.22186V2.43162C1.75666 1.98612 2.15061 1.62373 2.635 1.62373H31.3197V9.21078C31.3197 10.5472 32.5018 11.6343 33.9546 11.6343H42.2032V16.6058C40.4895 16.0086 38.6828 15.7017 36.8732 15.6838C36.8646 15.6827 36.8562 15.6811 36.8472 15.6811H17.2377C16.7526 15.6811 16.3594 16.0428 16.3594 16.489C16.3594 16.9351 16.7526 17.2969 17.2377 17.2969H29.5346C28.2818 17.8995 27.1008 18.671 26.0312 19.6109H17.2377C16.7526 19.6109 16.3594 19.9726 16.3594 20.4188C16.3594 20.8649 16.7526 21.2267 17.2377 21.2267H24.4504C23.0168 22.935 22.037 24.9025 21.568 27.0028H17.2378C16.7527 27.0028 16.3595 27.3646 16.3595 27.8107C16.3595 28.2569 16.7527 28.6186 17.2378 28.6186H21.3115C21.2711 29.0397 21.2497 29.4643 21.2497 29.8921C21.2497 30.243 21.2636 30.5919 21.2908 30.9384H17.238C16.7529 30.9384 16.3596 31.3002 16.3596 31.7463C16.3596 32.1925 16.7529 32.5542 17.238 32.5542H21.5198C21.9677 34.7409 22.9664 36.7899 24.4531 38.5604H17.238C16.7529 38.5604 16.3596 38.9221 16.3596 39.3683C16.3596 39.8146 16.7529 40.1762 17.238 40.1762H26.0347C27.1027 41.1144 28.2819 41.8845 29.5325 42.4865H17.2375C16.7524 42.4865 16.3592 42.8482 16.3592 43.2943C16.3592 43.7405 16.7524 44.1022 17.2375 44.1022H36.7055C38.5709 44.102 40.4364 43.7938 42.203 43.1781V52.6267C42.203 53.0721 41.809 53.4346 41.3246 53.4346H2.63488C2.15061 53.4346 1.75655 53.0722 1.75655 52.6267V12.4537C1.75655 12.0076 1.36331 11.6458 0.878213 11.6458C0.393119 11.6458 -0.00012207 12.0075 -0.00012207 12.4537V52.6267C-5.20831e-06 53.9627 1.18205 55.0498 2.63488 55.0498H41.3247C42.7776 55.0498 43.9596 53.9627 43.9596 52.6263V42.446C44.3516 42.2547 44.7363 42.0465 45.1127 41.8221L47.2446 43.7829C46.8757 44.0792 46.8559 44.6438 47.2106 44.9567L52.7517 50.0534C54.2975 51.5353 57.0793 51.5352 58.6249 50.0534C60.2362 48.6316 60.236 46.0729 58.625 44.6511ZM33.9545 10.0187C33.4702 10.0187 33.0761 9.65628 33.0761 9.21078V2.76627L40.9609 10.0187H33.9545ZM46.5454 40.8549C46.9202 40.5699 47.2841 40.2669 47.6347 39.9445C47.9832 39.624 48.313 39.2893 48.6243 38.9426L50.5656 40.7281L48.4866 42.6403L46.5454 40.8549ZM57.3829 48.9109C56.491 49.766 54.8859 49.7658 53.9939 48.9109L49.0737 44.3854L52.4629 41.2681L57.383 45.7936C58.3125 46.6142 58.3126 48.0904 57.3829 48.9109Z" fill="#BE00B0"/>
  <path d="M7.97043 22.0252H11.8129C12.8962 22.0252 13.7775 21.2146 13.7775 20.2183V16.684C13.7775 15.6875 12.8963 14.877 11.8129 14.877H7.97043C6.88723 14.877 6.00586 15.6875 6.00586 16.684V20.2183C6.00586 21.2146 6.88723 22.0252 7.97043 22.0252ZM7.76253 16.684C7.76253 16.5785 7.8559 16.4927 7.97043 16.4927H11.8129C11.9276 16.4927 12.0209 16.5785 12.0209 16.684V20.2183C12.0209 20.3237 11.9275 20.4095 11.8129 20.4095H7.97043C7.85579 20.4095 7.76253 20.3237 7.76253 20.2183V16.684Z" fill="#BE00B0"/>
  <path d="M6.00586 31.5456C6.00586 32.5419 6.88712 33.3525 7.97043 33.3525H11.8129C12.8962 33.3525 13.7775 32.5419 13.7775 31.5456V28.0113C13.7775 27.0149 12.8963 26.2043 11.8129 26.2043H7.97043C6.88723 26.2043 6.00586 27.0149 6.00586 28.0113V31.5456ZM7.76253 28.0113C7.76253 27.9058 7.8559 27.82 7.97043 27.82H11.8129C11.9276 27.82 12.0209 27.9058 12.0209 28.0113V31.5456C12.0209 31.651 11.9275 31.7368 11.8129 31.7368H7.97043C7.85579 31.7368 7.76253 31.651 7.76253 31.5456V28.0113Z" fill="#BE00B0"/>
  <path d="M6.00586 43.103C6.00586 44.0994 6.88712 44.9099 7.97043 44.9099H11.8129C12.8962 44.9099 13.7775 44.0994 13.7775 43.103V39.5687C13.7775 38.5723 12.8963 37.7617 11.8129 37.7617H7.97043C6.88723 37.7617 6.00586 38.5723 6.00586 39.5687V43.103ZM7.76253 39.5687C7.76253 39.4633 7.8559 39.3775 7.97043 39.3775H11.8129C11.9276 39.3775 12.0209 39.4633 12.0209 39.5687V43.103C12.0209 43.2085 11.9275 43.2943 11.8129 43.2943H7.97043C7.85579 43.2943 7.76253 43.2085 7.76253 43.103V39.5687Z" fill="#BE00B0"/>
</svg>
