<svg width="60" height="50" viewBox="0 0 60 50" fill="none" xmlns="http://www.w3.org/2000/svg">
  <path d="M40.481 49.1412H0.934896C0.467448 49.1412 0 48.7991 0 48.2859C0 47.7728 0.373958 47.4307 0.934896 47.4307H40.481C40.9484 47.4307 41.4159 47.7728 41.4159 48.2859C41.4159 48.7991 40.9484 49.1412 40.481 49.1412Z" fill="#BE00B0"/>
  <path d="M40.481 49.1397H6.63778C6.17033 49.1397 5.70288 48.7979 5.70288 48.2852V26.4958C5.70288 26.0686 6.07684 25.6414 6.63778 25.6414C7.19871 25.6414 7.57267 25.9832 7.57267 26.4958V47.4307H40.481C40.9485 47.4307 41.4159 47.7725 41.4159 48.2852C41.4159 48.7979 40.9485 49.1397 40.481 49.1397Z" fill="#BE00B0"/>
  <path d="M4.20703 28.2048C3.08516 28.2048 2.05677 27.863 1.21536 27.094C0.467448 26.4104 0 25.385 0 24.3596C0 23.4197 0.467448 22.4798 1.12188 21.7107L22.531 2.14305C25.5227 -0.591303 30.2906 -0.591303 33.2823 2.14305L42.4443 10.517C42.8182 10.8588 42.8182 11.3715 42.4443 11.7133C42.0703 12.0551 41.5094 12.0551 41.1354 11.7133L31.9734 3.33933C29.7297 1.28856 26.0836 1.28856 23.8398 3.33933L2.52422 22.8216C2.15026 23.2488 1.86979 23.847 1.86979 24.3596C1.86979 24.7869 1.96328 25.385 2.52422 25.8977C3.45911 26.7522 5.04844 26.7522 5.98333 25.8977L27.299 6.41547C27.6729 6.07368 28.2339 6.07368 28.6078 6.41547L36.3675 13.5077C36.7414 13.8495 36.7414 14.3622 36.3675 14.704C35.9935 15.0458 35.4326 15.0458 35.0586 14.704L27.9534 8.20989L7.29219 27.094C6.45078 27.863 5.32891 28.2048 4.20703 28.2048Z" fill="#BE00B0"/>
  <path d="M30.758 49.1397H17.4825C17.0151 49.1397 16.5476 48.7979 16.5476 48.2852V32.7336C16.5476 31.3664 17.763 30.1702 19.3523 30.1702H28.9817C30.4776 30.1702 31.6929 31.3664 31.6929 32.7336V48.2852C31.6929 48.7125 31.2255 49.1397 30.758 49.1397ZM18.4174 47.4307H29.8231V32.7336C29.8231 32.2209 29.3557 31.8791 28.9817 31.8791H19.3523C18.7914 31.8791 18.4174 32.3064 18.4174 32.7336V47.4307Z" fill="#BE00B0"/>
  <path d="M46.2774 49.0544C45.062 49.0544 43.9402 48.4562 43.2857 47.5163C40.0136 42.5603 32.6279 30.5975 32.6279 25.4706C32.6279 18.6347 38.7048 13.0806 46.1839 13.0806C53.6631 13.0806 59.8334 18.6347 59.8334 25.4706C59.8334 29.0594 56.2808 36.408 49.3626 47.5163C48.6146 48.4562 47.4928 49.0544 46.2774 49.0544ZM46.1839 14.7895C39.7331 14.7895 34.4977 19.5746 34.4977 25.4706C34.4977 30.2557 42.4443 42.9021 44.8751 46.6618C45.1555 47.0891 45.7165 47.4308 46.3709 47.4308C47.0253 47.4308 47.4928 47.1745 47.8667 46.6618C56.1873 33.2464 57.9636 27.6923 57.9636 25.4706C57.9636 19.5746 52.7282 14.7895 46.1839 14.7895Z" fill="#BE00B0"/>
  <path d="M46.2773 33.4171C41.5093 33.4171 37.5828 29.8283 37.5828 25.4704C37.5828 21.1125 41.5093 17.5237 46.2773 17.5237C51.0453 17.5237 54.9718 21.1125 54.9718 25.4704C54.9718 29.8283 51.0453 33.4171 46.2773 33.4171ZM46.2773 19.2327C42.5377 19.2327 39.4526 22.0524 39.4526 25.4704C39.4526 28.8883 42.5377 31.7081 46.2773 31.7081C50.0169 31.7081 53.102 28.8883 53.102 25.4704C53.102 22.0524 50.0169 19.2327 46.2773 19.2327Z" fill="#BE00B0"/>
  <path d="M20.2872 41.1931C19.8197 41.1931 19.3523 40.8513 19.3523 40.3386V39.2278C19.3523 38.8005 19.7263 38.3733 20.2872 38.3733C20.8481 38.3733 21.2221 38.7151 21.2221 39.2278V40.3386C21.2221 40.7659 20.7546 41.1931 20.2872 41.1931Z" fill="#BE00B0"/>
</svg>
