<svg width="37" height="37" viewBox="0 0 37 37" fill="none" xmlns="http://www.w3.org/2000/svg">
  <g clip-path="url(#clip0_139_3396)">
    <path d="M23.6658 5.24389C23.3082 2.73741 21.1265 0.847046 18.5912 0.847046C16.9608 0.847046 15.4123 1.63383 14.4495 2.95244C14.2529 3.22136 14.3117 3.59858 14.5806 3.79524C14.8486 3.99118 15.2268 3.93305 15.423 3.66378C16.16 2.65543 17.3442 2.05328 18.591 2.05328C20.53 2.05328 22.1981 3.49823 22.4716 5.41404C22.5147 5.71493 22.7728 5.93208 23.0681 5.93208C23.0962 5.93208 23.1252 5.92996 23.154 5.92607C23.4837 5.8789 23.7128 5.57341 23.6658 5.24389Z" fill="#959494"/>
    <path d="M32.3762 11.9953L30.5669 8.97978C30.4581 8.79797 30.2618 8.68701 30.0497 8.68701H28.3159C27.983 8.68701 27.7129 8.95716 27.7129 9.29004C27.7129 9.62292 27.983 9.89307 28.3159 9.89307H29.7084L30.7939 11.7023H6.38807L7.47363 9.89307H8.11235C8.44523 9.89307 8.71538 9.62292 8.71538 9.29004C8.71538 8.95716 8.44523 8.68701 8.11235 8.68701H7.13227C6.92025 8.68701 6.72395 8.79797 6.61511 8.97978L4.80584 11.9953C4.694 12.1819 4.69135 12.4139 4.79824 12.6029C4.90514 12.792 5.1055 12.9089 5.323 12.9089H31.859C32.0765 12.9089 32.2767 12.792 32.3838 12.6029C32.4908 12.4139 32.488 12.1815 32.3762 11.9953Z" fill="#959494"/>
    <path d="M29.3702 6.43436C29.2857 6.29814 29.1509 6.20149 28.9951 6.16509L20.7737 4.24221C20.618 4.20564 20.4541 4.23285 20.318 4.31695C20.1823 4.40141 20.0855 4.53622 20.0491 4.69206L19.4291 7.34235C19.3531 7.66657 19.5546 7.99097 19.879 8.06659C20.2032 8.14257 20.5279 7.94114 20.6035 7.61675L21.0863 5.55393L28.133 7.20224L27.0257 11.9366C26.9498 12.2608 27.1512 12.5852 27.4756 12.6608C27.5221 12.6716 27.5682 12.6767 27.6138 12.6767C27.8876 12.6767 28.1355 12.4891 28.2 12.2111L29.4448 6.88968C29.4815 6.73402 29.4547 6.57006 29.3702 6.43436Z" fill="#959494"/>
    <path d="M18.91 7.86011L18.3605 3.21237C18.3418 3.05353 18.2607 2.90847 18.1349 2.80952C18.0091 2.71058 17.8503 2.66535 17.6907 2.68408L7.60369 3.87636C7.27311 3.91558 7.0367 4.21524 7.07575 4.54618L7.99187 12.2979C8.02827 12.6048 8.28853 12.8305 8.59013 12.8305C8.61363 12.8305 8.63784 12.8289 8.66187 12.8262C8.99227 12.787 9.22868 12.4874 9.18981 12.1564L8.34436 5.00309L17.2336 3.95251L17.7121 8.00128C17.7513 8.33204 18.0496 8.56703 18.3819 8.52957C18.7125 8.4907 18.9489 8.19087 18.91 7.86011Z" fill="#959494"/>
    <path d="M23.6798 12.0765L22.4827 7.09857C22.4453 6.94326 22.3476 6.8088 22.2114 6.72523C22.0751 6.64236 21.9117 6.61639 21.7553 6.65349L12.0399 8.99C11.716 9.06774 11.5167 9.39355 11.5944 9.71741L12.1927 12.2055C12.2704 12.5297 12.5963 12.7292 12.9199 12.6509C13.2438 12.5732 13.4431 12.2474 13.3654 11.9235L12.9079 10.0217L21.4507 7.96751L22.5068 12.3589C22.573 12.6354 22.8204 12.8209 23.0927 12.8209C23.1395 12.8209 23.1868 12.8154 23.2344 12.8039C23.5582 12.726 23.7575 12.4004 23.6798 12.0765Z" fill="#959494"/>
    <path d="M32.462 12.275C32.4454 11.9545 32.1807 11.7029 31.8595 11.7029H5.32345C5.00223 11.7029 4.73756 11.9543 4.72095 12.275L3.51471 35.7955C3.50623 35.9605 3.56595 36.122 3.67974 36.2418C3.7937 36.3614 3.95166 36.4294 4.11703 36.4294H33.0653C33.2305 36.4294 33.3887 36.3616 33.5032 36.2418C33.6168 36.122 33.6765 35.9607 33.6682 35.7955L32.462 12.275ZM4.75169 35.2232L5.89609 12.9089H31.2861L32.4305 35.2232H4.75169Z" fill="#959494"/>
    <path d="M23.1144 14.115C22.1167 14.115 21.3052 14.9265 21.3052 15.9243C21.3052 16.922 22.1167 17.7335 23.1144 17.7335C24.1122 17.7335 24.9237 16.922 24.9237 15.9243C24.9237 14.9265 24.1122 14.115 23.1144 14.115ZM23.1144 16.5275C22.7817 16.5275 22.5114 16.257 22.5114 15.9244C22.5114 15.5919 22.7819 15.3214 23.1144 15.3214C23.447 15.3214 23.7175 15.5919 23.7175 15.9244C23.7175 16.257 23.447 16.5275 23.1144 16.5275Z" fill="#959494"/>
    <path d="M14.0681 14.115C13.0703 14.115 12.2588 14.9265 12.2588 15.9243C12.2588 16.922 13.0703 17.7335 14.0681 17.7335C15.0658 17.7335 15.8773 16.922 15.8773 15.9243C15.8773 14.9265 15.0658 14.115 14.0681 14.115ZM14.0681 16.5275C13.7355 16.5275 13.465 16.257 13.465 15.9244C13.465 15.5919 13.7355 15.3214 14.0681 15.3214C14.4006 15.3214 14.6711 15.5919 14.6711 15.9244C14.6711 16.257 14.4006 16.5275 14.0681 16.5275Z" fill="#959494"/>
    <path d="M23.1145 15.9242H23.068C22.7351 15.9242 22.465 16.1943 22.465 16.5272C22.465 16.6096 22.4812 16.6882 22.5114 16.7597V19.8442C22.5114 22.0056 20.7529 23.7643 18.5913 23.7643C16.4297 23.7643 14.6711 22.0057 14.6711 19.8442V16.5274C14.6711 16.1945 14.401 15.9244 14.0681 15.9244C13.7352 15.9244 13.4651 16.1945 13.4651 16.5274V19.8443C13.4651 22.671 15.7647 24.9705 18.5913 24.9705C21.4179 24.9705 23.7175 22.671 23.7175 19.8443V16.5274C23.7175 16.1945 23.4473 15.9242 23.1145 15.9242Z" fill="#959494"/>
  </g>
  <defs>
    <clipPath id="clip0_139_3396">
      <rect width="35.5824" height="35.5824" fill="#959494" transform="translate(0.800293 0.847046)"/>
    </clipPath>
  </defs>
</svg>
