<svg width="18" height="19" viewBox="0 0 18 19" fill="none" xmlns="http://www.w3.org/2000/svg">
  <path d="M9 12.2484C10.2426 12.2484 11.25 11.2411 11.25 9.99841C11.25 8.75577 10.2426 7.74841 9 7.74841C7.75736 7.74841 6.75 8.75577 6.75 9.99841C6.75 11.2411 7.75736 12.2484 9 12.2484Z" fill="white"/>
  <path d="M12.0938 2.96716H5.90625C4.86232 2.96835 3.86149 3.38357 3.12332 4.12174C2.38515 4.8599 1.96993 5.86074 1.96875 6.90466V13.0922C1.96993 14.1361 2.38515 15.1369 3.12332 15.8751C3.86149 16.6133 4.86232 17.0285 5.90625 17.0297H12.0938C13.1377 17.0285 14.1385 16.6133 14.8767 15.8751C15.6148 15.1369 16.0301 14.1361 16.0312 13.0922V6.90466C16.0301 5.86074 15.6148 4.8599 14.8767 4.12174C14.1385 3.38357 13.1377 2.96835 12.0938 2.96716V2.96716ZM9 13.3734C8.33249 13.3734 7.67997 13.1755 7.12495 12.8046C6.56993 12.4338 6.13735 11.9067 5.88191 11.29C5.62646 10.6733 5.55962 9.99467 5.68985 9.33998C5.82008 8.6853 6.14151 8.08393 6.61351 7.61193C7.08552 7.13993 7.68688 6.81849 8.34157 6.68826C8.99626 6.55804 9.67486 6.62487 10.2916 6.88032C10.9083 7.13577 11.4354 7.56835 11.8062 8.12336C12.1771 8.67838 12.375 9.3309 12.375 9.99841C12.374 10.8932 12.0181 11.7511 11.3854 12.3838C10.7527 13.0165 9.8948 13.3724 9 13.3734V13.3734ZM12.6562 7.18591C12.4894 7.18591 12.3262 7.13643 12.1875 7.04372C12.0487 6.951 11.9406 6.81923 11.8767 6.66505C11.8129 6.51088 11.7962 6.34123 11.8287 6.17756C11.8613 6.01388 11.9416 5.86354 12.0596 5.74554C12.1776 5.62754 12.328 5.54718 12.4916 5.51463C12.6553 5.48207 12.825 5.49878 12.9791 5.56264C13.1333 5.6265 13.2651 5.73465 13.3578 5.8734C13.4505 6.01215 13.5 6.17529 13.5 6.34216C13.5 6.56594 13.4111 6.78055 13.2529 6.93878C13.0946 7.09702 12.88 7.18591 12.6562 7.18591Z" fill="white"/>
</svg>
