<svg width="35" height="42" viewBox="0 0 35 42" fill="none" xmlns="http://www.w3.org/2000/svg">
  <path fill-rule="evenodd" clip-rule="evenodd" d="M17.4719 0.220459C13.0162 0.333254 8.77391 2.16601 5.62225 5.33971C2.47059 8.51341 0.650585 12.7853 0.538574 17.2722C0.696531 20.0274 1.45142 22.7144 2.75025 25.1445C2.78976 25.2203 2.83304 25.296 2.88008 25.3718C13.12 41.9026 16.1699 41.9025 17.4719 41.9025C19.503 41.9025 21.7052 40.4626 26.9198 33.1208C29.6394 29.2937 31.9668 25.5329 32.0647 25.3718C32.1117 25.296 32.154 25.2203 32.1936 25.1445C33.4922 22.7143 34.2471 20.0273 34.4052 17.2722C34.2932 12.7853 32.4732 8.51341 29.3216 5.33971C26.1699 2.16601 21.9276 0.333254 17.4719 0.220459ZM29.6686 23.875C29.6686 23.875 20.2819 39.0606 17.4719 39.0606C14.6854 39.0606 5.27521 23.875 5.27521 23.875C4.17428 21.8378 3.52138 19.5859 3.3608 17.2722C3.3608 13.5035 4.84749 9.88925 7.49384 7.2244C10.1402 4.55955 13.7294 3.06242 17.4719 3.06242C21.2144 3.06242 24.8036 4.55955 27.45 7.2244C30.0963 9.88925 31.583 13.5035 31.583 17.2722C31.4226 19.5859 30.7696 21.8378 29.6686 23.875ZM17.4719 8.74633C15.9834 8.74633 14.5284 9.19083 13.2907 10.0236C12.0531 10.8563 11.0885 12.0398 10.5189 13.4246C9.94924 14.8094 9.8002 16.3332 10.0906 17.8033C10.381 19.2734 11.0978 20.6239 12.1503 21.6837C13.2028 22.7436 14.5438 23.4654 16.0037 23.7579C17.4636 24.0503 18.9768 23.9001 20.352 23.3265C21.7271 22.7529 22.9025 21.7816 23.7295 20.5353C24.5564 19.289 24.9978 17.8238 24.9978 16.3249C24.9953 14.3157 24.2016 12.3895 22.7908 10.9688C21.3799 9.5481 19.4671 8.74884 17.4719 8.74633ZM17.4719 21.0615C16.5416 21.0615 15.6322 20.7837 14.8587 20.2632C14.0851 19.7428 13.4823 19.003 13.1262 18.1375C12.7702 17.272 12.6771 16.3196 12.8586 15.4008C13.0401 14.482 13.4881 13.638 14.1459 12.9756C14.8037 12.3132 15.6418 11.8621 16.5543 11.6793C17.4667 11.4965 18.4124 11.5904 19.2719 11.9489C20.1314 12.3074 20.866 12.9145 21.3829 13.6934C21.8997 14.4723 22.1756 15.3881 22.1756 16.3249C22.1756 17.5811 21.68 18.7859 20.7979 19.6742C19.9158 20.5624 18.7194 21.0615 17.4719 21.0615Z" fill="#959494"/>
</svg>
