<svg width="60" height="55" viewBox="0 0 60 55" fill="none" xmlns="http://www.w3.org/2000/svg">
  <path d="M56.0937 0.476562H3.73958C2.93403 0.477416 2.16174 0.772172 1.59213 1.29617C1.02252 1.82016 0.7021 2.53061 0.701172 3.27165V41.1129C0.7021 41.8539 1.02252 42.5644 1.59213 43.0884C2.16174 43.6124 2.93403 43.9071 3.73958 43.908H24.3857L23.5903 49.7595C21.6486 50.4014 19.7903 51.2396 18.0497 52.2588C17.841 52.3868 17.6827 52.5732 17.598 52.7904C17.5133 53.0075 17.5068 53.244 17.5795 53.4648C17.6522 53.6856 17.8002 53.8791 18.0016 54.0166C18.203 54.154 18.4471 54.2283 18.6979 54.2283H41.1354C41.3862 54.2283 41.6304 54.154 41.8317 54.0166C42.0331 53.8791 42.1811 53.6856 42.2538 53.4648C42.3265 53.244 42.32 53.0075 42.2353 52.7904C42.1507 52.5732 41.9923 52.3868 41.7836 52.2588C40.043 51.2396 38.1847 50.4014 36.243 49.7595L35.4476 43.908H56.0937C56.8993 43.9071 57.6716 43.6124 58.2412 43.0884C58.8108 42.5644 59.1312 41.8539 59.1322 41.1129V3.27165C59.1312 2.53061 58.8108 1.82016 58.2412 1.29617C57.6716 0.772172 56.8993 0.477416 56.0937 0.476562ZM3.73958 2.62663H56.0937C56.2797 2.6268 56.4579 2.69482 56.5893 2.81574C56.7208 2.93667 56.7947 3.10064 56.7949 3.27165V33.1576H3.03841V3.27165C3.0386 3.10064 3.11253 2.93667 3.24398 2.81574C3.37544 2.69482 3.55368 2.6268 3.73958 2.62663ZM24.3073 52.0782H23.5446C25.4019 51.391 27.6709 50.7882 29.9167 50.7882C32.1543 50.7882 34.4224 51.391 36.2809 52.0782H24.3073ZM33.7965 49.0853C31.2509 48.4891 28.5836 48.4891 26.038 49.0853L26.7412 43.908H33.0922L33.7965 49.0853ZM56.7949 41.1129C56.7947 41.2839 56.7208 41.4479 56.5893 41.5688C56.4579 41.6897 56.2797 41.7577 56.0937 41.7579H3.73958C3.55368 41.7577 3.37544 41.6897 3.24398 41.5688C3.11253 41.4479 3.0386 41.2839 3.03841 41.1129V35.3077H56.7949V41.1129Z" fill="#959494"/>
  <path d="M28.0469 39.6078H31.7865C32.0964 39.6078 32.3937 39.4946 32.6128 39.293C32.832 39.0914 32.9551 38.8179 32.9551 38.5328C32.9551 38.2477 32.832 37.9742 32.6128 37.7726C32.3937 37.571 32.0964 37.4578 31.7865 37.4578H28.0469C27.737 37.4578 27.4397 37.571 27.2206 37.7726C27.0014 37.9742 26.8783 38.2477 26.8783 38.5328C26.8783 38.8179 27.0014 39.0914 27.2206 39.293C27.4397 39.4946 27.737 39.6078 28.0469 39.6078Z" fill="#959494"/>
  <path d="M12.1536 7.78679H15.0508L20.3939 22.5322C20.4336 22.6418 20.4922 22.7449 20.5677 22.8373C19.8343 22.8363 19.1253 23.0791 18.571 23.5209C18.0168 23.9627 17.6546 24.5737 17.5512 25.2416C17.4479 25.9095 17.6102 26.5893 18.0083 27.1558C18.4065 27.7224 19.0137 28.1376 19.7182 28.325C20.4227 28.5124 21.177 28.4595 21.8425 28.1759C22.5079 27.8923 23.0396 27.3972 23.3397 26.7816C23.6398 26.1661 23.6881 25.4715 23.4758 24.8258C23.2634 24.18 22.8047 23.6266 22.184 23.2673H31.9375C31.9156 23.4797 31.9033 23.6947 31.9033 23.9123C31.9033 25.2518 32.3351 26.5613 33.1441 27.675C33.953 28.7888 35.1029 29.6569 36.4482 30.1695C37.7934 30.6821 39.2738 30.8162 40.7019 30.5549C42.13 30.2936 43.4419 29.6485 44.4715 28.7013C45.5012 27.7542 46.2023 26.5474 46.4864 25.2336C46.7705 23.9198 46.6247 22.5581 46.0675 21.3205C45.5102 20.083 44.5666 19.0252 43.3559 18.281C42.1451 17.5368 40.7217 17.1396 39.2656 17.1396C39.0334 17.1396 38.8041 17.1503 38.5773 17.1701L40.3743 12.212C40.4328 12.0503 40.4488 11.8783 40.4209 11.7098C40.393 11.5414 40.322 11.3816 40.2137 11.2434C40.1054 11.1052 39.963 10.9926 39.7981 10.915C39.6333 10.8374 39.4508 10.7969 39.2656 10.7969H24.3073C23.9973 10.7969 23.7001 10.9101 23.4809 11.1118C23.2618 11.3134 23.1386 11.5868 23.1386 11.8719C23.1386 12.157 23.2618 12.4305 23.4809 12.6321C23.7001 12.8337 23.9973 12.947 24.3073 12.947H37.6441L36.5517 15.9612C36.5217 15.9591 36.4915 15.9571 36.4609 15.9571H26.177C25.8671 15.9571 25.5699 16.0703 25.3507 16.2719C25.1315 16.4735 25.0084 16.747 25.0084 17.0321C25.0084 17.3172 25.1315 17.5906 25.3507 17.7923C25.5699 17.9939 25.8671 18.1071 26.177 18.1071H35.478C34.1983 18.8171 33.1819 19.8663 32.5621 21.1172H22.3449L17.0019 6.37183C16.9243 6.15777 16.7755 5.97158 16.5765 5.83965C16.3775 5.70771 16.1385 5.63672 15.8932 5.63672H12.1536C11.8437 5.63672 11.5464 5.74998 11.3273 5.95159C11.1081 6.1532 10.985 6.42664 10.985 6.71175C10.985 6.99687 11.1081 7.27031 11.3273 7.47192C11.5464 7.67353 11.8437 7.78679 12.1536 7.78679ZM20.5677 26.2774C20.429 26.2774 20.2934 26.2396 20.1781 26.1687C20.0628 26.0978 19.9729 25.9971 19.9199 25.8792C19.8668 25.7613 19.8529 25.6317 19.88 25.5065C19.907 25.3814 19.9738 25.2665 20.0719 25.1763C20.1699 25.0861 20.2949 25.0246 20.4309 24.9997C20.5669 24.9749 20.7079 24.9876 20.836 25.0364C20.9641 25.0853 21.0736 25.1679 21.1507 25.274C21.2277 25.3801 21.2688 25.5048 21.2688 25.6324C21.2687 25.8034 21.1947 25.9673 21.0633 26.0883C20.9318 26.2092 20.7536 26.2772 20.5677 26.2774ZM44.2906 23.9123C44.2906 24.8266 43.9959 25.7203 43.4438 26.4805C42.8916 27.2407 42.1068 27.8332 41.1886 28.1831C40.2704 28.533 39.26 28.6245 38.2852 28.4461C37.3105 28.2678 36.4151 27.8275 35.7123 27.181C35.0096 26.5345 34.531 25.7109 34.3371 24.8141C34.1432 23.9174 34.2427 22.988 34.623 22.1433C35.0034 21.2986 35.6474 20.5767 36.4738 20.0687C37.3002 19.5608 38.2717 19.2897 39.2656 19.2897C40.5978 19.2911 41.8751 19.7785 42.8172 20.6451C43.7592 21.5118 44.2891 22.6867 44.2906 23.9123Z" fill="#959494"/>
  <path d="M36.8733 24.8737L38.7431 25.7338C38.9978 25.8509 39.2904 25.8784 39.5656 25.8111C39.8409 25.7438 40.08 25.5863 40.2379 25.3683L42.1077 22.7882C42.2763 22.5509 42.3362 22.2621 42.2744 21.9844C42.2126 21.7068 42.0341 21.4628 41.7778 21.3056C41.5214 21.1484 41.208 21.0906 40.9056 21.1449C40.6032 21.1992 40.3364 21.3612 40.1632 21.5955L38.866 23.386L37.9194 22.9504C37.6425 22.8255 37.3232 22.8064 37.0311 22.8971C36.7389 22.9879 36.4976 23.1812 36.3597 23.4349C36.2218 23.6886 36.1985 23.9822 36.2949 24.2516C36.3912 24.5211 36.5995 24.7446 36.8742 24.8734L36.8733 24.8737Z" fill="#959494"/>
</svg>
