<svg width="36" height="30" viewBox="0 0 36 30" fill="none" xmlns="http://www.w3.org/2000/svg">
  <path d="M19.23 20.8175H28.7157C29.0714 20.8175 29.3085 20.5804 29.3085 20.2247V14.889C29.3085 14.5333 29.0714 14.2961 28.7157 14.2961H19.23C18.8743 14.2961 18.6372 14.5333 18.6372 14.889V20.2247C18.6371 20.5803 18.8743 20.8175 19.23 20.8175ZM19.8229 15.4818H28.1228V19.6318H19.8229V15.4818Z" fill="#959494"/>
  <path d="M3.2232 13.1103H7.96606C8.32177 13.1103 8.55889 12.8732 8.55889 12.5175C8.55889 12.1618 8.32177 11.9247 7.96606 11.9247H3.2232C2.86749 11.9247 2.63037 12.1618 2.63037 12.5175C2.63037 12.8732 2.86749 13.1103 3.2232 13.1103Z" fill="#959494"/>
  <path d="M10.3372 13.1103H15.0801C15.4358 13.1103 15.6729 12.8732 15.6729 12.5175C15.6729 12.1618 15.4358 11.9247 15.0801 11.9247H10.3372C9.9815 11.9247 9.74438 12.1618 9.74438 12.5175C9.74438 12.8732 9.9815 13.1103 10.3372 13.1103Z" fill="#959494"/>
  <path d="M3.2232 15.4818H10.9303C11.286 15.4818 11.5231 15.2447 11.5231 14.889C11.5231 14.5333 11.286 14.2961 10.9303 14.2961H3.2232C2.86749 14.2961 2.63037 14.5333 2.63037 14.889C2.63037 15.2447 2.86749 15.4818 3.2232 15.4818Z" fill="#959494"/>
  <path d="M15.0801 14.2961H13.3016C12.9459 14.2961 12.7087 14.5333 12.7087 14.889C12.7087 15.2447 12.9459 15.4818 13.3016 15.4818H15.0801C15.4358 15.4818 15.673 15.2447 15.673 14.889C15.673 14.5333 15.4358 14.2961 15.0801 14.2961Z" fill="#959494"/>
  <path d="M35.2965 6.94475C34.8815 6.41118 34.3479 6.11473 33.6958 6.05547L32.2729 5.88303V4.21758V3.03192C32.2729 1.72766 31.2058 0.660522 29.9015 0.660522H2.63018C1.32593 0.660453 0.258789 1.72759 0.258789 3.03192V4.21765V8.9605V22.0033C0.258789 23.0741 0.978342 23.9846 1.95766 24.2764C1.92779 25.4756 2.8352 26.5168 4.0531 26.6275L31.443 29.7103C31.5022 29.7103 31.6208 29.7103 31.6801 29.7103C32.8658 29.7103 33.9329 28.8211 34.0515 27.6947L35.83 8.66405C35.8893 8.07115 35.7114 7.41899 35.2965 6.94475ZM1.44452 4.81048H31.0872V6.35192V8.3676H1.44452V4.81048ZM2.63018 1.84618H29.9014C30.5536 1.84618 31.0872 2.37975 31.0872 3.03192V3.62475H1.44452V3.03192C1.44452 2.37975 1.97809 1.84618 2.63018 1.84618ZM1.44452 22.0032V9.55326H31.0872V22.0032C31.0872 22.6554 30.5537 23.1889 29.9015 23.1889H2.68951H2.63025C1.97809 23.1889 1.44452 22.6554 1.44452 22.0032ZM34.6443 8.42686L32.8657 27.4575C32.8065 28.1096 32.2136 28.5839 31.5615 28.5246L4.23089 25.4418C3.63806 25.3825 3.22301 24.9082 3.16375 24.3747H29.9014C31.2057 24.3747 32.2728 23.3075 32.2728 22.0033V8.96043V7.00401L33.6364 7.12261C33.9329 7.12261 34.2293 7.30046 34.4071 7.53758C34.585 7.7747 34.7036 8.13041 34.6443 8.42686Z" fill="#959494"/>
</svg>
