<svg width="17" height="15" viewBox="0 0 17 15" fill="none" xmlns="http://www.w3.org/2000/svg">
  <g clip-path="url(#clip0_139_2457)">
    <path d="M8.30419 0.998413C3.62377 0.998413 0.153809 2.60841 0.153809 4.49841V4.98841C0.153809 5.47841 0.63799 5.82841 1.20287 5.89841H3.30099C4.02726 5.89841 4.43074 5.12841 4.18865 4.49841C3.78517 4.00841 4.18865 3.30841 4.83423 3.16841C7.09374 2.74841 9.35325 2.74841 11.6935 3.16841C12.4197 3.30841 12.7425 3.93841 12.339 4.49841C12.0969 5.12841 12.5004 5.82841 13.2267 5.89841H15.3248C15.8897 5.89841 16.3739 5.47841 16.3739 4.98841V4.49841C16.2932 2.53841 12.7425 0.998413 8.30419 0.998413Z" fill="white"/>
    <path d="M12.5003 6.24841C12.339 6.03841 12.0969 5.89841 11.7741 5.89841H10.6443V4.84841C10.6443 4.63841 10.4829 4.49841 10.2408 4.49841H9.43387C9.19178 4.49841 9.03038 4.63841 9.03038 4.84841V5.89841H7.41644V4.84841C7.41644 4.63841 7.25505 4.49841 7.01296 4.49841H6.20599C5.9639 4.49841 5.80251 4.63841 5.80251 4.84841V5.89841H4.67275C4.34996 5.89841 4.10787 6.03841 3.94648 6.24841C2.73602 8.06841 0.960693 10.3784 0.960693 14.2984C0.960693 14.6484 1.28348 14.9984 1.76766 14.9984H14.6792C15.1633 14.9984 15.4861 14.6484 15.4861 14.2984C15.4861 10.3784 13.6301 7.92841 12.5003 6.24841ZM8.22341 13.5984C6.44808 13.5984 4.99554 12.3384 4.99554 10.7984C4.99554 9.25841 6.44808 7.99841 8.22341 7.99841C9.99874 7.99841 11.4513 9.25841 11.4513 10.7984C11.4513 12.3384 9.99874 13.5984 8.22341 13.5984Z" fill="white"/>
    <path d="M8.22331 12.1984C9.11467 12.1984 9.83725 11.5716 9.83725 10.7984C9.83725 10.0252 9.11467 9.39844 8.22331 9.39844C7.33196 9.39844 6.60938 10.0252 6.60938 10.7984C6.60938 11.5716 7.33196 12.1984 8.22331 12.1984Z" fill="white"/>
  </g>
  <defs>
    <clipPath id="clip0_139_2457">
      <rect width="16.1394" height="14" fill="white" transform="translate(0.153809 0.998413)"/>
    </clipPath>
  </defs>
</svg>
