<svg width="27" height="26" viewBox="0 0 27 26" fill="none" xmlns="http://www.w3.org/2000/svg">
  <g clip-path="url(#clip0_139_3685)">
    <path d="M13.4068 13.1079L13.2964 23.1701" stroke="#959494" stroke-linecap="round" stroke-linejoin="round"/>
    <path d="M22.8591 17.7404V8.4754C22.8591 8.33674 22.82 8.20057 22.7458 8.08081C22.6716 7.96105 22.565 7.862 22.4368 7.79377L13.7058 3.147C13.581 3.08057 13.44 3.04565 13.2966 3.04565C13.1532 3.04565 13.0123 3.08057 12.8875 3.147L4.1565 7.79377C4.0283 7.862 3.92165 7.96105 3.84744 8.08081C3.77323 8.20057 3.73413 8.33674 3.73413 8.4754V17.7404C3.73413 17.879 3.77323 18.0152 3.84744 18.1349C3.92165 18.2547 4.0283 18.3538 4.1565 18.422L12.8875 23.0688C13.0123 23.1352 13.1532 23.1701 13.2966 23.1701C13.44 23.1701 13.581 23.1352 13.7058 23.0688L22.4368 18.422C22.565 18.3538 22.6716 18.2547 22.7458 18.1349C22.82 18.0152 22.8591 17.879 22.8591 17.7404V17.7404Z" stroke="#959494" stroke-linecap="round" stroke-linejoin="round"/>
    <path d="M22.7452 8.07993L13.4069 13.1079L3.84863 8.07886" stroke="#959494" stroke-linecap="round" stroke-linejoin="round"/>
    <path d="M18.4037 15.1154V10.4176L8.76025 5.34375" stroke="#959494" stroke-linecap="round" stroke-linejoin="round"/>
  </g>
  <defs>
    <clipPath id="clip0_139_3685">
      <rect width="26.6087" height="25.0551" fill="white" transform="translate(0.00390625 0.580322)"/>
    </clipPath>
  </defs>
</svg>
