<svg width="28" height="27" viewBox="0 0 28 27" fill="none" xmlns="http://www.w3.org/2000/svg">
  <path d="M18.5652 3.71753H1.93481V18.1306H18.5652V3.71753Z" stroke="white" stroke-linecap="round" stroke-linejoin="round"/>
  <path d="M18.5652 9.26099H23L26.3261 12.5871V18.1306H18.5652V9.26099Z" stroke="white" stroke-linecap="round" stroke-linejoin="round"/>
  <path d="M6.92408 23.6738C8.45487 23.6738 9.69582 22.4329 9.69582 20.9021C9.69582 19.3713 8.45487 18.1304 6.92408 18.1304C5.39329 18.1304 4.15234 19.3713 4.15234 20.9021C4.15234 22.4329 5.39329 23.6738 6.92408 23.6738Z" stroke="white" stroke-linecap="round" stroke-linejoin="round"/>
  <path d="M21.3369 23.6738C22.8677 23.6738 24.1087 22.4329 24.1087 20.9021C24.1087 19.3713 22.8677 18.1304 21.3369 18.1304C19.8061 18.1304 18.5652 19.3713 18.5652 20.9021C18.5652 22.4329 19.8061 23.6738 21.3369 23.6738Z" stroke="white" stroke-linecap="round" stroke-linejoin="round"/>
</svg>
