<svg width="37" height="37" viewBox="0 0 37 37" fill="none" xmlns="http://www.w3.org/2000/svg">
  <g clip-path="url(#clip0_139_3389)">
    <path d="M36.5308 35.7233L31.3185 21.9928C31.2752 21.8788 31.1933 21.7836 31.0871 21.7237L25.5353 18.596L27.1562 16.026C28.1509 14.4474 28.6768 12.6232 28.6768 10.7506C28.6768 5.28986 24.2342 0.84729 18.7735 0.84729C13.3128 0.84729 8.87027 5.28986 8.87027 10.7506C8.87027 12.6237 9.39636 14.448 10.3917 16.0261C10.4183 16.0684 12.0121 18.5961 12.0121 18.5961L6.46013 21.7237C6.35387 21.7836 6.27193 21.8788 6.22864 21.9928L1.01639 35.7233C0.93848 35.9284 0.997483 36.1604 1.16379 36.3035C1.3303 36.4467 1.56833 36.4702 1.75951 36.3624L10.1386 31.6418L18.5177 36.3624C18.6765 36.4519 18.8706 36.4519 19.0294 36.3624L27.4084 31.6418L35.7875 36.3624C35.8674 36.4075 35.9556 36.4296 36.0433 36.4296C36.1654 36.4296 36.2864 36.3868 36.3833 36.3036C36.5498 36.1604 36.6087 35.9284 36.5308 35.7233ZM19.2948 27.8614C19.6209 27.7463 19.9036 27.5246 20.0955 27.2208C20.122 27.1792 24.5592 20.1437 24.5592 20.1437L26.8192 30.7773L19.2948 35.0163V27.8614ZM11.2735 15.4699C10.3833 14.0585 9.91279 12.4265 9.91279 10.7505C9.91279 5.8646 13.8877 1.88967 18.7736 1.88967C23.6595 1.88967 27.6344 5.8646 27.6344 10.7505C27.6344 12.4262 27.1641 14.0583 26.2745 15.4699C26.2049 15.5802 19.3371 26.4712 19.2173 26.6593C19.2162 26.6609 19.2152 26.6626 19.2142 26.6642C19.1175 26.8171 18.9529 26.9085 18.7736 26.9085C18.5942 26.9085 18.4288 26.8167 18.332 26.6645C18.2624 26.554 11.3809 15.6415 11.2758 15.4738C11.2751 15.4725 11.2742 15.4713 11.2735 15.4699ZM7.13619 22.5393L11.9951 19.802L11.1487 23.7844C11.0888 24.066 11.2685 24.3428 11.5501 24.4027C11.5866 24.4105 11.6231 24.4142 11.659 24.4142C11.8998 24.4142 12.1162 24.2463 12.1682 24.0013L12.9881 20.1441L17.4512 27.2222C17.6438 27.5252 17.9267 27.7464 18.2523 27.8613V35.0164L10.7281 30.7773L11.7349 26.0405C11.7947 25.7589 11.615 25.4822 11.3334 25.4223C11.0516 25.3621 10.775 25.5422 10.7152 25.8237L9.67768 30.7049L2.50174 34.7478L7.13619 22.5393ZM27.8695 30.7049L25.5523 19.8019L30.411 22.5393L35.0455 34.7478L27.8695 30.7049Z" fill="#959494"/>
    <path d="M24.507 10.7503C24.507 7.58892 21.9349 5.01685 18.7735 5.01685C15.6121 5.01685 13.04 7.58892 13.04 10.7503C13.04 13.9117 15.6121 16.4838 18.7735 16.4838C21.9349 16.4838 24.507 13.9117 24.507 10.7503ZM14.0825 10.7503C14.0825 8.16366 16.1869 6.0593 18.7735 6.0593C21.3602 6.0593 23.4646 8.16366 23.4646 10.7503C23.4646 13.337 21.3602 15.4414 18.7735 15.4414C16.1869 15.4414 14.0825 13.337 14.0825 10.7503Z" fill="#959494"/>
    <path d="M22.4222 10.7504C22.4222 8.73859 20.7854 7.10181 18.7736 7.10181C16.7618 7.10181 15.125 8.73859 15.125 10.7504C15.125 12.7622 16.7618 14.399 18.7736 14.399C20.7854 14.399 22.4222 12.7622 22.4222 10.7504ZM16.1675 10.7504C16.1675 9.31333 17.3365 8.14426 18.7736 8.14426C20.2106 8.14426 21.3797 9.31333 21.3797 10.7504C21.3797 12.1874 20.2106 13.3565 18.7736 13.3565C17.3365 13.3565 16.1675 12.1874 16.1675 10.7504Z" fill="#959494"/>
  </g>
  <defs>
    <clipPath id="clip0_139_3389">
      <rect width="35.5824" height="35.5824" fill="white" transform="translate(0.982422 0.847046)"/>
    </clipPath>
  </defs>
</svg>
