<svg width="18" height="19" viewBox="0 0 18 19" fill="none" xmlns="http://www.w3.org/2000/svg">
  <path fill-rule="evenodd" clip-rule="evenodd" d="M8.99739 0.998413C4.03585 0.998413 0 5.03539 0 9.99833C0 11.9666 0.634741 13.7919 1.71375 15.2735L0.592346 18.6173L4.05167 17.5117C5.47447 18.4535 7.17241 18.9984 9.00261 18.9984C13.9642 18.9984 18 14.9613 18 9.99849C18 5.03555 13.9642 0.998562 9.00261 0.998562H8.99739V0.998413ZM6.48482 5.56997C6.31031 5.15201 6.17804 5.13619 5.91367 5.12544C5.82365 5.12021 5.72333 5.11499 5.61211 5.11499C5.26817 5.11499 4.90855 5.21548 4.69164 5.43768C4.42726 5.70751 3.77131 6.33705 3.77131 7.62811C3.77131 8.91917 4.71284 10.1678 4.83973 10.3425C4.97199 10.5169 6.67529 13.2048 9.31998 14.3002C11.3881 15.1573 12.0018 15.0779 12.4725 14.9774C13.1601 14.8293 14.0224 14.3211 14.2393 13.7076C14.4562 13.0937 14.4562 12.5699 14.3926 12.4588C14.3291 12.3477 14.1545 12.2843 13.8901 12.1519C13.6257 12.0196 12.3403 11.3847 12.0969 11.3C11.8588 11.2101 11.6315 11.2419 11.4517 11.4959C11.1978 11.8504 10.9493 12.2103 10.7482 12.4271C10.5895 12.5964 10.3302 12.6176 10.1134 12.5276C9.82247 12.406 9.00799 12.1201 8.00288 11.2259C7.22527 10.5329 6.69636 9.67057 6.54305 9.41134C6.38958 9.14689 6.5272 8.99323 6.64872 8.85048C6.78098 8.68637 6.90789 8.57005 7.04015 8.41654C7.17242 8.26319 7.24647 8.18375 7.33111 8.00381C7.42113 7.82925 7.35752 7.64931 7.29408 7.51701C7.23063 7.38471 6.70172 6.09365 6.48482 5.56997Z" fill="white"/>
</svg>
